<svg xmlns="http://www.w3.org/2000/svg" viewBox="0 0 120.56 100.2">
  <path stroke="#fff" stroke-width="1.407" d="m113.692 63.035-.265 10.33c-14.9 8.278-44.037 8.94-62.711-.463l-.199-10.264"/>
  <path stroke="#fff" stroke-linejoin="round" stroke-width="1.407" d="M50.517 62.903a31.587 8.94 0 1 0 63.175 0 31.587 8.94 0 1 0-63.175 0z"/>
  <path stroke="#fff" stroke-width="1.407" d="m109.602 53.183-.265 10.33c-14.9 8.279-44.037 8.94-62.711-.463l-.199-10.264"/>
  <path stroke="#fff" stroke-linejoin="round" stroke-width="1.407" d="M46.427 53.051a31.587 8.94 0 1 0 63.175 0 31.587 8.94 0 1 0-63.175 0z"/>
  <path stroke="#fff" stroke-width="1.407" d="m112.14 43.929-.265 10.33c-14.9 8.278-44.037 8.94-62.712-.463l-.198-10.264"/>
  <path stroke="#fff" stroke-linejoin="round" stroke-width="1.407" d="M48.965 43.796a31.587 8.94 0 1 0 63.174 0 31.587 8.94 0 1 0-63.174 0z"/>
  <path stroke="#fff" stroke-width="1.407" d="m111.304 34.674-.265 10.33c-14.9 8.278-44.037 8.94-62.712-.463l-.198-10.264"/>
  <path stroke="#fff" stroke-width="1.407" d="M48.129 34.542a31.587 8.94 0 1 0 63.175 0 31.587 8.94 0 1 0-63.175 0z"/>
  <path stroke="#fff" stroke-width="1.407" d="m111.304 24.524-.265 10.33c-14.9 8.278-44.037 8.94-62.712-.463l-.198-10.264"/>
  <path stroke="#fff" stroke-linejoin="round" stroke-width="1.407" d="M48.129 24.392a31.587 8.94 0 1 0 63.175 0 31.587 8.94 0 1 0-63.175 0z"/>
  <path stroke="#fff" stroke-width="1.407" d="m69.6 74.384-.264 10.33c-14.9 8.278-44.037 8.94-62.712-.463l-.198-10.264"/>
  <path stroke="#fff" stroke-width="1.407" d="M6.426 74.252a31.587 8.94 0 1 0 63.174 0 31.587 8.94 0 1 0-63.174 0z"/>
  <path stroke="#fff" stroke-width="1.407" d="m68.406 64.234-.265 10.33c-14.9 8.278-44.036 8.94-62.71-.463l-.2-10.264"/>
  <path stroke="#fff" stroke-width="1.407" d="M5.232 64.102a31.587 8.94 0 1 0 63.174 0 31.587 8.94 0 1 0-63.174 0z"/>
  <path stroke="#fff" stroke-width="1.407" d="m68.805 53.373-.265 10.33c-14.9 8.278-44.037 8.94-62.711-.463L5.63 52.975"/>
  <path stroke="#fff" stroke-width="1.407" d="M5.63 53.24a31.587 8.94 0 1 0 63.175 0 31.587 8.94 0 1 0-63.175 0z"/>
</svg>